HIERARCHY
ROOT Hips
{
 OFFSET 0.000000 0.000000 0.000000
 CHANNELS 6 Xposition Yposition Zposition Yrotation Xrotation Zrotation
 JOINT Chest
 {
  OFFSET 0.000000 9.585900 0.002600
  CHANNELS 3 Yrotation Xrotation Zrotation
  JOINT Chest2
  {
   OFFSET 0.000000 9.601200 -0.005300
   CHANNELS 3 Yrotation Xrotation Zrotation
   JOINT Chest3
   {
    OFFSET 0.000000 9.561800 0.000000
    CHANNELS 3 Yrotation Xrotation Zrotation
    JOINT Chest4
    {
     OFFSET 0.000000 9.552100 0.000000
     CHANNELS 3 Yrotation Xrotation Zrotation
     JOINT Neck
     {
      OFFSET 0.000000 14.453000 0.000000
      CHANNELS 3 Yrotation Xrotation Zrotation
      JOINT Head
      {
       OFFSET 0.000000 8.936500 -0.011300
       CHANNELS 3 Yrotation Xrotation Zrotation
       End Site
       {
        OFFSET 0.000000 17.073600 -0.006000
       }
      }
     }
     JOINT RightCollar
     {
      OFFSET -2.921100 9.558500 0.000000
      CHANNELS 3 Yrotation Xrotation Zrotation
      JOINT RightShoulder
      {
       OFFSET -13.519700 0.000000 0.000000
       CHANNELS 3 Yrotation Xrotation Zrotation
       JOINT RightElbow
       {
        OFFSET 0.000000 -29.696600 0.000000
        CHANNELS 3 Yrotation Xrotation Zrotation
        JOINT RightWrist
        {
         OFFSET 0.000000 -24.004700 0.000000
         CHANNELS 3 Yrotation Xrotation Zrotation
         End Site
         {
          OFFSET 0.000000 -17.728500 0.000000
         }
        }
       }
      }
     }
     JOINT LeftCollar
     {
      OFFSET 2.921100 9.558500 0.000000
      CHANNELS 3 Yrotation Xrotation Zrotation
      JOINT LeftShoulder
      {
       OFFSET 13.519700 0.000000 0.000000
       CHANNELS 3 Yrotation Xrotation Zrotation
       JOINT LeftElbow
       {
        OFFSET 0.000000 -29.696600 0.000000
        CHANNELS 3 Yrotation Xrotation Zrotation
        JOINT LeftWrist
        {
         OFFSET 0.000000 -24.004700 0.000000
         CHANNELS 3 Yrotation Xrotation Zrotation
         End Site
         {
          OFFSET 0.000000 -17.728500 0.000000
         }
        }
       }
      }
     }
    }
   }
  }
 }
 JOINT RightHip
 {
  OFFSET -7.771700 -0.012900 -0.001300
  CHANNELS 3 Yrotation Xrotation Zrotation
  JOINT RightKnee
  {
   OFFSET 0.000000 -40.869800 0.001200
   CHANNELS 3 Yrotation Xrotation Zrotation
   JOINT RightAnkle
   {
    OFFSET 0.000000 -39.717900 0.002100
    CHANNELS 3 Yrotation Xrotation Zrotation
    JOINT RightToe
    {
     OFFSET 0.000000 -4.965400 11.033500
     CHANNELS 3 Yrotation Xrotation Zrotation
     End Site
     {
      OFFSET 0.000000 -1.423100 5.872300
     }
    }
   }
  }
 }
 JOINT LeftHip
 {
  OFFSET 7.771700 -0.012900 -0.001300
  CHANNELS 3 Yrotation Xrotation Zrotation
  JOINT LeftKnee
  {
   OFFSET 0.000000 -40.869800 0.001200
   CHANNELS 3 Yrotation Xrotation Zrotation
   JOINT LeftAnkle
   {
    OFFSET 0.000000 -39.717900 0.002100
    CHANNELS 3 Yrotation Xrotation Zrotation
    JOINT LeftToe
    {
     OFFSET 0.000000 -4.965400 11.033500
     CHANNELS 3 Yrotation Xrotation Zrotation
     End Site
     {
      OFFSET 0.000000 -1.423100 5.872300
     }
    }
   }
  }
 }
}
MOTION
Frames: 6
Frame Time: 0.008333
-146.027060 49.189368 18.727342 176.682806 -30.713817 -3.691707 -0.160166 19.593969 2.275468 -0.067765 2.384789 0.233531 -0.075688 3.927652 0.383379 -0.231760 16.915520 1.650077 3.085485 18.524135 -1.159867 6.041671 -1.261494 -3.121455 -1.552673 -3.299051 -4.594086 5.018617 -7.820776 -11.781462 -32.704367 -43.247446 84.653289 4.417378 6.394109 -9.133348 1.719828 -2.558102 3.637080 -8.239769 -4.396474 11.677710 66.380437 -74.469319 -104.768833 2.491466 9.591736 5.015382 -4.023302 -54.245896 -7.442005 -136.930325 82.070429 -124.389816 -30.341430 -1.806491 -4.057853 -0.106552 -12.124305 0.642023 -14.090310 -55.725996 18.881552 -73.506005 65.416662 -78.555827 30.597817 6.708230 16.120549 0.121086 -0.278823 0.048071
-146.028211 49.188985 18.726228 176.660920 -30.720854 -3.693506 -0.145045 19.597974 2.285600 -0.072008 2.384277 0.233687 -0.097613 3.925699 0.385099 -0.207516 16.920766 1.648113 3.076234 18.513259 -1.154849 6.047705 -1.262817 -3.127728 -1.567081 -3.319563 -4.591015 5.022529 -7.822046 -11.786853 -32.720444 -43.244628 84.673913 4.411420 6.418874 -9.128931 1.684523 -2.586622 3.642957 -8.271646 -4.409849 11.697128 66.384114 -74.459549 -104.753337 2.519827 9.599321 5.049777 -4.045644 -54.238908 -7.417950 -136.999631 82.091541 -124.459396 -30.355457 -1.809693 -4.069025 -0.094894 -12.125666 0.638352 -14.087601 -55.718999 18.898624 -73.531571 65.415611 -78.581889 30.605638 6.693659 16.124714 0.109104 -0.279847 0.046156
-146.029409 49.188180 18.726100 176.644863 -30.720373 -3.693507 -0.145885 19.592590 2.287393 -0.059749 2.388016 0.234574 -0.102139 3.924747 0.385765 -0.207169 16.922690 1.648751 3.064420 18.501826 -1.147318 6.028064 -1.311046 -3.117075 -1.580803 -3.338658 -4.590388 5.038775 -7.811606 -11.789209 -32.787654 -43.285352 84.710346 4.387720 6.445493 -9.111683 1.645739 -2.617172 3.648020 -8.297906 -4.418262 11.714167 66.393708 -74.451787 -104.743678 2.535858 9.604679 5.061334 -4.063637 -54.239410 -7.405777 -137.076753 82.110998 -124.535742 -30.364178 -1.812838 -4.081220 -0.087340 -12.126849 0.636911 -14.088512 -55.723892 18.908741 -73.559358 65.416953 -78.608694 30.619485 6.689471 16.127861 0.101081 -0.284703 0.041635
-146.030875 49.188557 18.724408 176.639859 -30.730336 -3.691790 -0.184351 19.591983 2.273713 -0.036141 2.393281 0.235026 -0.094182 3.928919 0.385593 -0.250455 16.919839 1.658800 3.083884 18.498491 -1.161641 6.035030 -1.318993 -3.123872 -1.549780 -3.350571 -4.614319 5.034467 -7.826486 -11.792687 -32.795400 -43.288826 84.716093 4.409655 6.409320 -9.099412 1.647785 -2.639881 3.628061 -8.316139 -4.424557 11.730737 66.404059 -74.448357 -104.737360 2.512677 9.594022 5.028782 -4.101756 -54.226106 -7.399793 -137.165654 82.135700 -124.630399 -30.389980 -1.820497 -4.084338 -0.093146 -12.130004 0.630415 -14.085088 -55.712956 18.907336 -73.574279 65.412188 -78.622715 30.618436 6.679412 16.122520 0.104436 -0.279489 0.042158
-146.030044 49.188833 18.723964 176.620908 -30.734879 -3.692035 -0.188711 19.589632 2.273593 -0.038950 2.396817 0.238952 -0.095413 3.929428 0.386061 -0.240407 16.920953 1.655924 3.079358 18.492811 -1.158488 6.046826 -1.316227 -3.134014 -1.554356 -3.365264 -4.617249 5.011929 -7.882278 -11.802273 -32.768320 -43.258502 84.704834 4.403872 6.419922 -9.080649 1.613605 -2.667555 3.626615 -8.314887 -4.420199 11.741386 66.427373 -74.456219 -104.759660 2.544482 9.597921 5.055512 -4.108325 -54.219698 -7.385346 -137.165880 82.140380 -124.619874 -30.426456 -1.834144 -4.092774 -0.135797 -12.125844 0.643231 -14.085996 -55.702818 18.925722 -73.575292 65.409870 -78.624331 30.618997 6.670803 16.122160 0.097774 -0.276967 0.040143
-146.028644 49.190031 18.722704 176.609422 -30.746566 -3.694821 -0.197387 19.592182 2.271295 -0.062345 2.389871 0.236252 -0.091749 3.932754 0.387923 -0.214871 16.931721 1.656948 3.086403 18.493439 -1.160807 6.035308 -1.333350 -3.118327 -1.558015 -3.377667 -4.617887 5.013301 -7.904282 -11.808136 -32.756051 -43.242879 84.696860 4.397937 6.429413 -9.070993 1.581310 -2.697107 3.628436 -8.284426 -4.394790 11.737404 66.484884 -74.480150 -104.843627 2.569454 9.600961 5.079689 -4.116073 -54.205256 -7.373546 -137.143259 82.142905 -124.583162 -30.489356 -1.847746 -4.091174 -0.111588 -12.124780 0.637207 -14.091119 -55.685504 18.940196 -73.577825 65.409790 -78.628116 30.618118 6.661442 16.121938 0.093139 -0.274118 0.036904
